<svg id="visual" viewBox="0 0 900 600" width="900" height="600" xmlns="http://www.w3.org/2000/svg" xmlns:xlink="http://www.w3.org/1999/xlink" version="1.1"><rect x="0" y="0" width="900" height="600" fill="#4F8782"></rect><path d="M0 400L21.5 411.2C43 422.3 86 444.7 128.8 445.7C171.7 446.7 214.3 426.3 257.2 411.5C300 396.7 343 387.3 385.8 393.3C428.7 399.3 471.3 420.7 514.2 437C557 453.3 600 464.7 642.8 474.2C685.7 483.7 728.3 491.3 771.2 494.7C814 498 857 497 878.5 496.5L900 496L900 601L878.5 601C857 601 814 601 771.2 601C728.3 601 685.7 601 642.8 601C600 601 557 601 514.2 601C471.3 601 428.7 601 385.8 601C343 601 300 601 257.2 601C214.3 601 171.7 601 128.8 601C86 601 43 601 21.5 601L0 601Z" fill="#FFFDFC" stroke-linecap="round" stroke-linejoin="miter"></path></svg>